<svg width="1200" height="1200" viewBox="0 0 1200 1200" fill="none" xmlns="http://www.w3.org/2000/svg">
<line x1="400" x2="400" y2="1200" stroke="black" stroke-width="10"/>
<line x1="800" x2="800" y2="1200" stroke="black" stroke-width="10"/>
<line x1="1200" y1="400" x2="0.000101089" y2="400" stroke="black" stroke-width="10"/>
<line x1="1200" y1="800" x2="0.000101089" y2="799" stroke="black" stroke-width="10"/>
<path d="M95.5312 463.727V394H424.047V463.727H301.586V794H217.992V463.727H95.5312ZM695.141 509.039C693.578 493.284 686.872 481.044 675.023 472.32C663.174 463.596 647.094 459.234 626.781 459.234C612.979 459.234 601.326 461.187 591.82 465.094C582.315 468.87 575.023 474.143 569.945 480.914C564.997 487.685 562.523 495.367 562.523 503.961C562.263 511.122 563.76 517.372 567.016 522.711C570.401 528.049 575.023 532.672 580.883 536.578C586.742 540.354 593.513 543.674 601.195 546.539C608.878 549.273 617.081 551.617 625.805 553.57L661.742 562.164C679.19 566.07 695.206 571.279 709.789 577.789C724.372 584.299 737.003 592.307 747.68 601.812C758.357 611.318 766.625 622.516 772.484 635.406C778.474 648.297 781.534 663.076 781.664 679.742C781.534 704.221 775.284 725.445 762.914 743.414C750.674 761.253 732.966 775.12 709.789 785.016C686.742 794.781 658.943 799.664 626.391 799.664C594.099 799.664 565.974 794.716 542.016 784.82C518.188 774.924 499.568 760.276 486.156 740.875C472.875 721.344 465.909 697.19 465.258 668.414H547.094C548.005 681.826 551.846 693.023 558.617 702.008C565.518 710.862 574.698 717.568 586.156 722.125C597.745 726.552 610.831 728.766 625.414 728.766C639.737 728.766 652.172 726.682 662.719 722.516C673.396 718.349 681.664 712.555 687.523 705.133C693.383 697.711 696.313 689.182 696.313 679.547C696.313 670.562 693.643 663.01 688.305 656.891C683.096 650.771 675.414 645.562 665.258 641.266C655.232 636.969 642.927 633.062 628.344 629.547L584.789 618.609C551.065 610.406 524.438 597.581 504.906 580.133C485.375 562.685 475.674 539.182 475.805 509.625C475.674 485.406 482.12 464.247 495.141 446.148C508.292 428.049 526.326 413.922 549.242 403.766C572.159 393.609 598.201 388.531 627.367 388.531C657.055 388.531 682.966 393.609 705.102 403.766C727.367 413.922 744.685 428.049 757.055 446.148C769.424 464.247 775.805 485.211 776.195 509.039H695.141ZM912.377 707.672L912.572 607.867H924.682L1020.78 494H1116.28L987.182 644.781H967.455L912.377 707.672ZM836.986 794V394H920.189V794H836.986ZM1024.49 794L936.205 663.336L991.674 604.547L1121.95 794H1024.49Z" fill="black"/>
</svg>
