<svg width="1652" height="551" viewBox="0 0 1652 551" fill="none" xmlns="http://www.w3.org/2000/svg">
<line x1="548.783" x2="548.783" y2="551" stroke="black" stroke-width="10"/>
<line x1="293" x2="293" y2="551" stroke="black" stroke-width="10"/>
<line x1="1077" x2="1077" y2="551" stroke="black" stroke-width="10"/>
<line x1="1328" x2="1328" y2="551" stroke="black" stroke-width="10"/>
<line x1="819" x2="819" y2="551" stroke="black" stroke-width="10"/>
<line x1="1652" y1="186.371" x2="0.000169277" y2="186.371" stroke="black" stroke-width="10"/>
<line x1="1652" y1="370.038" x2="0.000169277" y2="369.578" stroke="black" stroke-width="10"/>
<path d="M56.429 165.826V121.455H265.484V165.826H187.555V376H134.359V165.826H56.429ZM437.999 194.661C437.004 184.635 432.737 176.846 425.197 171.295C417.656 165.743 407.423 162.967 394.497 162.967C385.714 162.967 378.298 164.21 372.249 166.696C366.201 169.099 361.56 172.455 358.329 176.763C355.18 181.072 353.606 185.961 353.606 191.43C353.44 195.987 354.393 199.964 356.464 203.362C358.619 206.759 361.56 209.7 365.289 212.186C369.018 214.589 373.326 216.702 378.215 218.525C383.104 220.265 388.324 221.756 393.876 222.999L416.745 228.468C427.848 230.954 438.04 234.268 447.32 238.411C456.601 242.554 464.638 247.65 471.433 253.699C478.227 259.748 483.489 266.874 487.217 275.077C491.029 283.28 492.976 292.684 493.059 303.29C492.976 318.868 488.999 332.374 481.127 343.809C473.338 355.161 462.069 363.985 447.32 370.283C432.654 376.497 414.964 379.604 394.249 379.604C373.699 379.604 355.802 376.456 340.555 370.158C325.392 363.861 313.543 354.539 305.009 342.193C296.557 329.764 292.124 314.394 291.71 296.082H343.787C344.367 304.616 346.811 311.742 351.12 317.46C355.512 323.094 361.353 327.361 368.645 330.261C376.019 333.079 384.347 334.487 393.627 334.487C402.742 334.487 410.655 333.161 417.366 330.51C424.161 327.858 429.423 324.171 433.151 319.448C436.88 314.725 438.744 309.298 438.744 303.166C438.744 297.449 437.046 292.643 433.648 288.749C430.334 284.854 425.445 281.54 418.982 278.805C412.602 276.071 404.772 273.585 395.491 271.348L367.775 264.388C346.314 259.168 329.369 251.006 316.94 239.903C304.511 228.799 298.338 213.843 298.421 195.034C298.338 179.622 302.44 166.157 310.726 154.64C319.095 143.122 330.571 134.132 345.154 127.669C359.737 121.206 376.309 117.974 394.87 117.974C413.762 117.974 430.251 121.206 444.337 127.669C458.506 134.132 469.527 143.122 477.398 154.64C485.27 166.157 489.33 179.498 489.579 194.661H437.999ZM650.689 294.714V185.091H703.637V376H652.802V341.323H650.814C646.505 352.509 639.338 361.5 629.312 368.294C619.368 375.089 607.229 378.486 592.895 378.486C580.134 378.486 568.907 375.586 559.212 369.786C549.518 363.985 541.936 355.741 536.467 345.052C531.081 334.363 528.347 321.561 528.264 306.646V185.091H581.211V297.2C581.294 308.469 584.319 317.377 590.285 323.923C596.251 330.469 604.247 333.741 614.273 333.741C620.653 333.741 626.619 332.291 632.17 329.391C637.722 326.408 642.196 322.017 645.594 316.217C649.074 310.416 650.772 303.249 650.689 294.714ZM816.337 379.107C801.836 379.107 788.703 375.379 776.937 367.921C765.254 360.381 755.973 349.319 749.096 334.736C742.301 320.07 738.904 302.089 738.904 280.794C738.904 258.919 742.426 240.731 749.469 226.231C756.512 211.647 765.875 200.751 777.558 193.543C789.324 186.251 802.209 182.605 816.212 182.605C826.901 182.605 835.809 184.428 842.935 188.074C850.143 191.637 855.944 196.111 860.335 201.497C864.81 206.8 868.207 212.02 870.527 217.158H872.143V121.455H924.966V376H872.764V345.425H870.527C868.041 350.728 864.52 355.989 859.962 361.21C855.488 366.347 849.646 370.614 842.438 374.011C835.312 377.409 826.611 379.107 816.337 379.107ZM833.116 336.973C841.65 336.973 848.859 334.653 854.742 330.013C860.708 325.29 865.265 318.702 868.414 310.251C871.646 301.799 873.261 291.897 873.261 280.545C873.261 269.194 871.687 259.333 868.538 250.964C865.39 242.596 860.832 236.133 854.866 231.575C848.901 227.018 841.65 224.739 833.116 224.739C824.415 224.739 817.082 227.101 811.116 231.824C805.151 236.547 800.635 243.093 797.569 251.462C794.503 259.83 792.97 269.525 792.97 280.545C792.97 291.649 794.503 301.468 797.569 310.002C800.718 318.454 805.233 325.083 811.116 329.888C817.082 334.612 824.415 336.973 833.116 336.973ZM1054.76 379.729C1035.45 379.729 1018.75 375.627 1004.67 367.424C990.663 359.138 979.85 347.621 972.227 332.871C964.604 318.04 960.792 300.846 960.792 281.291C960.792 261.571 964.604 244.336 972.227 229.587C979.85 214.755 990.663 203.237 1004.67 195.034C1018.75 186.748 1035.45 182.605 1054.76 182.605C1074.06 182.605 1090.72 186.748 1104.72 195.034C1118.81 203.237 1129.66 214.755 1137.28 229.587C1144.91 244.336 1148.72 261.571 1148.72 281.291C1148.72 300.846 1144.91 318.04 1137.28 332.871C1129.66 347.621 1118.81 359.138 1104.72 367.424C1090.72 375.627 1074.06 379.729 1054.76 379.729ZM1055 338.713C1063.79 338.713 1071.12 336.227 1077 331.256C1082.89 326.201 1087.32 319.324 1090.3 310.624C1093.37 301.923 1094.9 292.022 1094.9 280.918C1094.9 269.815 1093.37 259.913 1090.3 251.213C1087.32 242.513 1082.89 235.635 1077 230.581C1071.12 225.527 1063.79 222.999 1055 222.999C1046.14 222.999 1038.68 225.527 1032.63 230.581C1026.67 235.635 1022.15 242.513 1019.08 251.213C1016.1 259.913 1014.61 269.815 1014.61 280.918C1014.61 292.022 1016.1 301.923 1019.08 310.624C1022.15 319.324 1026.67 326.201 1032.63 331.256C1038.68 336.227 1046.14 338.713 1055 338.713ZM1231.12 321.064L1231.25 257.552H1238.95L1300.1 185.091H1360.88L1278.73 281.043H1266.17L1231.12 321.064ZM1183.15 376V121.455H1236.09V376H1183.15ZM1302.47 376L1246.29 292.85L1281.58 255.439L1364.49 376H1302.47ZM1509.28 294.714V185.091H1562.23V376H1511.4V341.323H1509.41C1505.1 352.509 1497.93 361.5 1487.91 368.294C1477.96 375.089 1465.82 378.486 1451.49 378.486C1438.73 378.486 1427.5 375.586 1417.81 369.786C1408.11 363.985 1400.53 355.741 1395.06 345.052C1389.68 334.363 1386.94 321.561 1386.86 306.646V185.091H1439.81V297.2C1439.89 308.469 1442.91 317.377 1448.88 323.923C1454.84 330.469 1462.84 333.741 1472.87 333.741C1479.25 333.741 1485.21 332.291 1490.76 329.391C1496.32 326.408 1500.79 322.017 1504.19 316.217C1507.67 310.416 1509.37 303.249 1509.28 294.714Z" fill="black"/>
</svg>
